G04 #@! TF.GenerationSoftware,KiCad,Pcbnew,9.0.5*
G04 #@! TF.CreationDate,2025-11-21T21:05:44+09:00*
G04 #@! TF.ProjectId,PC-84C0SD,50432d38-3443-4305-9344-2e6b69636164,1.0*
G04 #@! TF.SameCoordinates,Original*
G04 #@! TF.FileFunction,Soldermask,Bot*
G04 #@! TF.FilePolarity,Negative*
%FSLAX46Y46*%
G04 Gerber Fmt 4.6, Leading zero omitted, Abs format (unit mm)*
G04 Created by KiCad (PCBNEW 9.0.5) date 2025-11-21 21:05:44*
%MOMM*%
%LPD*%
G01*
G04 APERTURE LIST*
G04 Aperture macros list*
%AMRoundRect*
0 Rectangle with rounded corners*
0 $1 Rounding radius*
0 $2 $3 $4 $5 $6 $7 $8 $9 X,Y pos of 4 corners*
0 Add a 4 corners polygon primitive as box body*
4,1,4,$2,$3,$4,$5,$6,$7,$8,$9,$2,$3,0*
0 Add four circle primitives for the rounded corners*
1,1,$1+$1,$2,$3*
1,1,$1+$1,$4,$5*
1,1,$1+$1,$6,$7*
1,1,$1+$1,$8,$9*
0 Add four rect primitives between the rounded corners*
20,1,$1+$1,$2,$3,$4,$5,0*
20,1,$1+$1,$4,$5,$6,$7,0*
20,1,$1+$1,$6,$7,$8,$9,0*
20,1,$1+$1,$8,$9,$2,$3,0*%
G04 Aperture macros list end*
%ADD10RoundRect,0.250000X0.550000X-0.550000X0.550000X0.550000X-0.550000X0.550000X-0.550000X-0.550000X0*%
%ADD11C,1.600000*%
%ADD12R,1.700000X1.700000*%
%ADD13C,1.700000*%
%ADD14R,1.600000X1.600000*%
%ADD15C,2.200000*%
%ADD16R,2.000000X2.000000*%
%ADD17C,2.000000*%
%ADD18RoundRect,0.250000X-0.550000X-0.550000X0.550000X-0.550000X0.550000X0.550000X-0.550000X0.550000X0*%
G04 APERTURE END LIST*
D10*
X55885000Y-132080000D03*
D11*
X58425000Y-132080000D03*
X60965000Y-132080000D03*
X63505000Y-132080000D03*
X66045000Y-132080000D03*
X68585000Y-132080000D03*
X71125000Y-132080000D03*
X71125000Y-124460000D03*
X68585000Y-124460000D03*
X66045000Y-124460000D03*
X63505000Y-124460000D03*
X60965000Y-124460000D03*
X58425000Y-124460000D03*
X55885000Y-124460000D03*
D12*
X106680000Y-83820000D03*
D13*
X104140000Y-83820000D03*
X101600000Y-83820000D03*
X99060000Y-83820000D03*
X96520000Y-83820000D03*
X93980000Y-83820000D03*
X91440000Y-83820000D03*
X88900000Y-83820000D03*
X86360000Y-83820000D03*
X83820000Y-83820000D03*
X81280000Y-83820000D03*
X78740000Y-83820000D03*
X76200000Y-83820000D03*
X73660000Y-83820000D03*
X71120000Y-83820000D03*
X68580000Y-83820000D03*
X66040000Y-83820000D03*
X63500000Y-83820000D03*
X60960000Y-83820000D03*
X58420000Y-83820000D03*
X55880000Y-83820000D03*
X53340000Y-83820000D03*
D14*
X88900000Y-100330000D03*
D11*
X91440000Y-100330000D03*
X93980000Y-100330000D03*
X96520000Y-100330000D03*
X99060000Y-100330000D03*
X58460000Y-88900000D03*
X63460000Y-88900000D03*
D15*
X55000000Y-55000000D03*
D12*
X106680000Y-139700000D03*
D13*
X104140000Y-139700000D03*
X101600000Y-139700000D03*
X99060000Y-139700000D03*
X96520000Y-139700000D03*
X93980000Y-139700000D03*
X91440000Y-139700000D03*
X88900000Y-139700000D03*
X86360000Y-139700000D03*
X83820000Y-139700000D03*
X81280000Y-139700000D03*
X78740000Y-139700000D03*
X76200000Y-139700000D03*
X73660000Y-139700000D03*
X71120000Y-139700000D03*
X68580000Y-139700000D03*
X66040000Y-139700000D03*
X63500000Y-139700000D03*
X60960000Y-139700000D03*
X58420000Y-139700000D03*
X55880000Y-139700000D03*
X53340000Y-139700000D03*
D16*
X134160000Y-64770000D03*
D17*
X137160000Y-64770000D03*
D12*
X106680000Y-60960000D03*
D13*
X104140000Y-60960000D03*
X101600000Y-60960000D03*
X99060000Y-60960000D03*
X96520000Y-60960000D03*
X93980000Y-60960000D03*
X91440000Y-60960000D03*
X88900000Y-60960000D03*
X86360000Y-60960000D03*
X83820000Y-60960000D03*
X81280000Y-60960000D03*
X78740000Y-60960000D03*
X76200000Y-60960000D03*
X73660000Y-60960000D03*
X71120000Y-60960000D03*
X68580000Y-60960000D03*
X66040000Y-60960000D03*
X63500000Y-60960000D03*
X60960000Y-60960000D03*
X58420000Y-60960000D03*
X55880000Y-60960000D03*
X53340000Y-60960000D03*
D10*
X104140000Y-113030000D03*
D11*
X106680000Y-113030000D03*
X109220000Y-113030000D03*
X111760000Y-113030000D03*
X114300000Y-113030000D03*
X116840000Y-113030000D03*
X119380000Y-113030000D03*
X121920000Y-113030000D03*
X124460000Y-113030000D03*
X127000000Y-113030000D03*
X129540000Y-113030000D03*
X132080000Y-113030000D03*
X134620000Y-113030000D03*
X137160000Y-113030000D03*
X139700000Y-113030000D03*
X142240000Y-113030000D03*
X142240000Y-97790000D03*
X139700000Y-97790000D03*
X137160000Y-97790000D03*
X134620000Y-97790000D03*
X132080000Y-97790000D03*
X129540000Y-97790000D03*
X127000000Y-97790000D03*
X124460000Y-97790000D03*
X121920000Y-97790000D03*
X119380000Y-97790000D03*
X116840000Y-97790000D03*
X114300000Y-97790000D03*
X111760000Y-97790000D03*
X109220000Y-97790000D03*
X106680000Y-97790000D03*
X104140000Y-97790000D03*
D10*
X76200000Y-132080000D03*
D11*
X78740000Y-132080000D03*
X81280000Y-132080000D03*
X83820000Y-132080000D03*
X86360000Y-132080000D03*
X88900000Y-132080000D03*
X91440000Y-132080000D03*
X93980000Y-132080000D03*
X93980000Y-124460000D03*
X91440000Y-124460000D03*
X88900000Y-124460000D03*
X86360000Y-124460000D03*
X83820000Y-124460000D03*
X81280000Y-124460000D03*
X78740000Y-124460000D03*
X76200000Y-124460000D03*
D15*
X145000000Y-145000000D03*
D10*
X99060000Y-135890000D03*
D11*
X101600000Y-135890000D03*
X104140000Y-135890000D03*
X106680000Y-135890000D03*
X109220000Y-135890000D03*
X111760000Y-135890000D03*
X114300000Y-135890000D03*
X116840000Y-135890000D03*
X119380000Y-135890000D03*
X121920000Y-135890000D03*
X124460000Y-135890000D03*
X127000000Y-135890000D03*
X129540000Y-135890000D03*
X132080000Y-135890000D03*
X134620000Y-135890000D03*
X137160000Y-135890000D03*
X139700000Y-135890000D03*
X142240000Y-135890000D03*
X144780000Y-135890000D03*
X147320000Y-135890000D03*
X147320000Y-120650000D03*
X144780000Y-120650000D03*
X142240000Y-120650000D03*
X139700000Y-120650000D03*
X137160000Y-120650000D03*
X134620000Y-120650000D03*
X132080000Y-120650000D03*
X129540000Y-120650000D03*
X127000000Y-120650000D03*
X124460000Y-120650000D03*
X121920000Y-120650000D03*
X119380000Y-120650000D03*
X116840000Y-120650000D03*
X114300000Y-120650000D03*
X111760000Y-120650000D03*
X109220000Y-120650000D03*
X106680000Y-120650000D03*
X104140000Y-120650000D03*
X101600000Y-120650000D03*
X99060000Y-120650000D03*
D18*
X99100000Y-91440000D03*
D11*
X101600000Y-91440000D03*
X137200000Y-88900000D03*
X142200000Y-88900000D03*
X58420000Y-99060000D03*
X68580000Y-99060000D03*
D12*
X106680000Y-116840000D03*
D13*
X104140000Y-116840000D03*
X101600000Y-116840000D03*
X99060000Y-116840000D03*
X96520000Y-116840000D03*
X93980000Y-116840000D03*
X91440000Y-116840000D03*
X88900000Y-116840000D03*
X86360000Y-116840000D03*
X83820000Y-116840000D03*
X81280000Y-116840000D03*
X78740000Y-116840000D03*
X76200000Y-116840000D03*
X73660000Y-116840000D03*
X71120000Y-116840000D03*
X68580000Y-116840000D03*
X66040000Y-116840000D03*
X63500000Y-116840000D03*
X60960000Y-116840000D03*
X58420000Y-116840000D03*
X55880000Y-116840000D03*
X53340000Y-116840000D03*
D12*
X53340000Y-96520000D03*
D13*
X53340000Y-93980000D03*
X53340000Y-91440000D03*
X53340000Y-88900000D03*
D10*
X81280000Y-111760000D03*
D11*
X83820000Y-111760000D03*
X86360000Y-111760000D03*
X88900000Y-111760000D03*
X91440000Y-111760000D03*
X93980000Y-111760000D03*
X96520000Y-111760000D03*
X99060000Y-111760000D03*
X99060000Y-104140000D03*
X96520000Y-104140000D03*
X93980000Y-104140000D03*
X91440000Y-104140000D03*
X88900000Y-104140000D03*
X86360000Y-104140000D03*
X83820000Y-104140000D03*
X81280000Y-104140000D03*
X58420000Y-95250000D03*
X68580000Y-95250000D03*
D15*
X145000000Y-55000000D03*
D12*
X147320000Y-101600000D03*
D13*
X147320000Y-99060000D03*
X147320000Y-96520000D03*
X147320000Y-93980000D03*
X147320000Y-91440000D03*
X147320000Y-88900000D03*
X147320000Y-86360000D03*
X147320000Y-83820000D03*
X147320000Y-81280000D03*
X147320000Y-78740000D03*
X147320000Y-76200000D03*
X147320000Y-73660000D03*
X147320000Y-71120000D03*
X147320000Y-68580000D03*
D10*
X73660000Y-96520000D03*
D11*
X76200000Y-96520000D03*
X78740000Y-96520000D03*
X81280000Y-96520000D03*
X83820000Y-96520000D03*
X86360000Y-96520000D03*
X88900000Y-96520000D03*
X88900000Y-88900000D03*
X86360000Y-88900000D03*
X83820000Y-88900000D03*
X81280000Y-88900000D03*
X78740000Y-88900000D03*
X76200000Y-88900000D03*
X73660000Y-88900000D03*
D10*
X58420000Y-111760000D03*
D11*
X60960000Y-111760000D03*
X63500000Y-111760000D03*
X66040000Y-111760000D03*
X68580000Y-111760000D03*
X71120000Y-111760000D03*
X73660000Y-111760000D03*
X76200000Y-111760000D03*
X76200000Y-104140000D03*
X73660000Y-104140000D03*
X71120000Y-104140000D03*
X68580000Y-104140000D03*
X66040000Y-104140000D03*
X63500000Y-104140000D03*
X60960000Y-104140000D03*
X58420000Y-104140000D03*
D10*
X114300000Y-91440000D03*
D11*
X116840000Y-91440000D03*
X119380000Y-91440000D03*
X121920000Y-91440000D03*
X124460000Y-91440000D03*
X127000000Y-91440000D03*
X129540000Y-91440000D03*
X132080000Y-91440000D03*
X132080000Y-83820000D03*
X129540000Y-83820000D03*
X127000000Y-83820000D03*
X124460000Y-83820000D03*
X121920000Y-83820000D03*
X119380000Y-83820000D03*
X116840000Y-83820000D03*
X114300000Y-83820000D03*
D15*
X55000000Y-145000000D03*
M02*
