M48
; DRILL file {KiCad 9.0.5} date 2025-11-21T21:05:52+0900
; FORMAT={-:-/ absolute / metric / decimal}
; #@! TF.CreationDate,2025-11-21T21:05:52+09:00
; #@! TF.GenerationSoftware,Kicad,Pcbnew,9.0.5
; #@! TF.FileFunction,Plated,1,4,PTH
FMAT,2
METRIC
; #@! TA.AperFunction,Plated,PTH,ViaDrill
T1C0.300
; #@! TA.AperFunction,Plated,PTH,ComponentDrill
T2C0.800
; #@! TA.AperFunction,Plated,PTH,ComponentDrill
T3C0.900
; #@! TA.AperFunction,Plated,PTH,ComponentDrill
T4C1.000
%
G90
G05
T1
X53.34Y-64.77
X53.34Y-119.38
X55.88Y-93.98
X55.88Y-114.3
X58.42Y-114.3
X60.96Y-93.98
X60.96Y-137.16
X63.5Y-72.39
X63.5Y-97.79
X66.04Y-77.47
X66.04Y-91.44
X66.04Y-93.98
X66.04Y-127.0
X66.04Y-135.89
X68.58Y-63.5
X68.58Y-91.44
X71.12Y-80.01
X71.12Y-90.17
X71.12Y-99.06
X71.12Y-119.38
X73.66Y-100.33
X76.2Y-86.36
X78.74Y-86.36
X78.74Y-111.76
X81.28Y-67.31
X81.28Y-86.36
X81.28Y-93.98
X81.28Y-144.78
X83.82Y-91.44
X83.82Y-93.98
X83.82Y-144.78
X86.36Y-143.51
X88.9Y-142.24
X91.44Y-120.65
X91.44Y-135.89
X93.98Y-134.62
X96.52Y-114.3
X96.52Y-133.35
X99.06Y-69.85
X99.06Y-114.3
X101.6Y-93.98
X101.6Y-97.79
X104.14Y-81.28
X104.14Y-86.36
X104.14Y-91.44
X104.14Y-93.98
X109.22Y-88.9
X109.22Y-100.33
X109.22Y-123.19
X109.22Y-130.81
X111.76Y-104.14
X111.76Y-130.81
X114.3Y-109.22
X114.3Y-129.54
X116.84Y-107.95
X116.84Y-128.27
X119.38Y-110.49
X119.38Y-127.0
X121.92Y-102.87
X121.92Y-125.73
X121.92Y-132.08
X124.46Y-104.14
X124.46Y-123.19
X124.46Y-133.35
X127.0Y-133.35
X129.54Y-100.33
X129.54Y-106.68
X129.54Y-132.08
X132.08Y-101.6
X132.08Y-133.35
X134.62Y-102.87
X134.62Y-105.41
X134.62Y-132.08
X137.16Y-110.49
X137.16Y-118.11
X139.7Y-109.22
X139.7Y-125.73
X142.24Y-107.95
X144.78Y-115.57
X147.32Y-114.3
X147.32Y-123.19
T2
X55.885Y-124.46
X55.885Y-132.08
X58.42Y-95.25
X58.42Y-99.06
X58.42Y-104.14
X58.42Y-111.76
X58.425Y-124.46
X58.425Y-132.08
X58.46Y-88.9
X60.96Y-104.14
X60.96Y-111.76
X60.965Y-124.46
X60.965Y-132.08
X63.46Y-88.9
X63.5Y-104.14
X63.5Y-111.76
X63.505Y-124.46
X63.505Y-132.08
X66.04Y-104.14
X66.04Y-111.76
X66.045Y-124.46
X66.045Y-132.08
X68.58Y-95.25
X68.58Y-99.06
X68.58Y-104.14
X68.58Y-111.76
X68.585Y-124.46
X68.585Y-132.08
X71.12Y-104.14
X71.12Y-111.76
X71.125Y-124.46
X71.125Y-132.08
X73.66Y-88.9
X73.66Y-96.52
X73.66Y-104.14
X73.66Y-111.76
X76.2Y-88.9
X76.2Y-96.52
X76.2Y-104.14
X76.2Y-111.76
X76.2Y-124.46
X76.2Y-132.08
X78.74Y-88.9
X78.74Y-96.52
X78.74Y-124.46
X78.74Y-132.08
X81.28Y-88.9
X81.28Y-96.52
X81.28Y-104.14
X81.28Y-111.76
X81.28Y-124.46
X81.28Y-132.08
X83.82Y-88.9
X83.82Y-96.52
X83.82Y-104.14
X83.82Y-111.76
X83.82Y-124.46
X83.82Y-132.08
X86.36Y-88.9
X86.36Y-96.52
X86.36Y-104.14
X86.36Y-111.76
X86.36Y-124.46
X86.36Y-132.08
X88.9Y-88.9
X88.9Y-96.52
X88.9Y-100.33
X88.9Y-104.14
X88.9Y-111.76
X88.9Y-124.46
X88.9Y-132.08
X91.44Y-100.33
X91.44Y-104.14
X91.44Y-111.76
X91.44Y-124.46
X91.44Y-132.08
X93.98Y-100.33
X93.98Y-104.14
X93.98Y-111.76
X93.98Y-124.46
X93.98Y-132.08
X96.52Y-100.33
X96.52Y-104.14
X96.52Y-111.76
X99.06Y-100.33
X99.06Y-104.14
X99.06Y-111.76
X99.06Y-120.65
X99.06Y-135.89
X99.1Y-91.44
X101.6Y-91.44
X101.6Y-120.65
X101.6Y-135.89
X104.14Y-97.79
X104.14Y-113.03
X104.14Y-120.65
X104.14Y-135.89
X106.68Y-97.79
X106.68Y-113.03
X106.68Y-120.65
X106.68Y-135.89
X109.22Y-97.79
X109.22Y-113.03
X109.22Y-120.65
X109.22Y-135.89
X111.76Y-97.79
X111.76Y-113.03
X111.76Y-120.65
X111.76Y-135.89
X114.3Y-83.82
X114.3Y-91.44
X114.3Y-97.79
X114.3Y-113.03
X114.3Y-120.65
X114.3Y-135.89
X116.84Y-83.82
X116.84Y-91.44
X116.84Y-97.79
X116.84Y-113.03
X116.84Y-120.65
X116.84Y-135.89
X119.38Y-83.82
X119.38Y-91.44
X119.38Y-97.79
X119.38Y-113.03
X119.38Y-120.65
X119.38Y-135.89
X121.92Y-83.82
X121.92Y-91.44
X121.92Y-97.79
X121.92Y-113.03
X121.92Y-120.65
X121.92Y-135.89
X124.46Y-83.82
X124.46Y-91.44
X124.46Y-97.79
X124.46Y-113.03
X124.46Y-120.65
X124.46Y-135.89
X127.0Y-83.82
X127.0Y-91.44
X127.0Y-97.79
X127.0Y-113.03
X127.0Y-120.65
X127.0Y-135.89
X129.54Y-83.82
X129.54Y-91.44
X129.54Y-97.79
X129.54Y-113.03
X129.54Y-120.65
X129.54Y-135.89
X132.08Y-83.82
X132.08Y-91.44
X132.08Y-97.79
X132.08Y-113.03
X132.08Y-120.65
X132.08Y-135.89
X134.62Y-97.79
X134.62Y-113.03
X134.62Y-120.65
X134.62Y-135.89
X137.16Y-97.79
X137.16Y-113.03
X137.16Y-120.65
X137.16Y-135.89
X137.2Y-88.9
X139.7Y-97.79
X139.7Y-113.03
X139.7Y-120.65
X139.7Y-135.89
X142.2Y-88.9
X142.24Y-97.79
X142.24Y-113.03
X142.24Y-120.65
X142.24Y-135.89
X144.78Y-120.65
X144.78Y-135.89
X147.32Y-120.65
X147.32Y-135.89
T3
X134.16Y-64.77
X137.16Y-64.77
T4
X53.34Y-60.96
X53.34Y-83.82
X53.34Y-88.9
X53.34Y-91.44
X53.34Y-93.98
X53.34Y-96.52
X53.34Y-116.84
X53.34Y-139.7
X55.88Y-60.96
X55.88Y-83.82
X55.88Y-116.84
X55.88Y-139.7
X58.42Y-60.96
X58.42Y-83.82
X58.42Y-116.84
X58.42Y-139.7
X60.96Y-60.96
X60.96Y-83.82
X60.96Y-116.84
X60.96Y-139.7
X63.5Y-60.96
X63.5Y-83.82
X63.5Y-116.84
X63.5Y-139.7
X66.04Y-60.96
X66.04Y-83.82
X66.04Y-116.84
X66.04Y-139.7
X68.58Y-60.96
X68.58Y-83.82
X68.58Y-116.84
X68.58Y-139.7
X71.12Y-60.96
X71.12Y-83.82
X71.12Y-116.84
X71.12Y-139.7
X73.66Y-60.96
X73.66Y-83.82
X73.66Y-116.84
X73.66Y-139.7
X76.2Y-60.96
X76.2Y-83.82
X76.2Y-116.84
X76.2Y-139.7
X78.74Y-60.96
X78.74Y-83.82
X78.74Y-116.84
X78.74Y-139.7
X81.28Y-60.96
X81.28Y-83.82
X81.28Y-116.84
X81.28Y-139.7
X83.82Y-60.96
X83.82Y-83.82
X83.82Y-116.84
X83.82Y-139.7
X86.36Y-60.96
X86.36Y-83.82
X86.36Y-116.84
X86.36Y-139.7
X88.9Y-60.96
X88.9Y-83.82
X88.9Y-116.84
X88.9Y-139.7
X91.44Y-60.96
X91.44Y-83.82
X91.44Y-116.84
X91.44Y-139.7
X93.98Y-60.96
X93.98Y-83.82
X93.98Y-116.84
X93.98Y-139.7
X96.52Y-60.96
X96.52Y-83.82
X96.52Y-116.84
X96.52Y-139.7
X99.06Y-60.96
X99.06Y-83.82
X99.06Y-116.84
X99.06Y-139.7
X101.6Y-60.96
X101.6Y-83.82
X101.6Y-116.84
X101.6Y-139.7
X104.14Y-60.96
X104.14Y-83.82
X104.14Y-116.84
X104.14Y-139.7
X106.68Y-60.96
X106.68Y-83.82
X106.68Y-116.84
X106.68Y-139.7
X147.32Y-68.58
X147.32Y-71.12
X147.32Y-73.66
X147.32Y-76.2
X147.32Y-78.74
X147.32Y-81.28
X147.32Y-83.82
X147.32Y-86.36
X147.32Y-88.9
X147.32Y-91.44
X147.32Y-93.98
X147.32Y-96.52
X147.32Y-99.06
X147.32Y-101.6
M30
